# xmcd
#
# Track frame offsets:
#	150
#	23313
#	43546
#	61862
#	90420
#	109704
#	128847
#	145980
#	166728
#	190382
#	207911
#	222136
#	234560
#	296197
#
# Disc length: 4763 seconds
#
# Revision: 0
# Processed by: cddbd v1.5.2PL0 Copyright (c) Steve Scherf et al.
# Submitted via: audiograbber 1.83.01
#
DISCID=bf12990e
DTITLE=Various Artist - Blue Rose Nuggets 30
DYEAR=2008
DGENRE=Country-Rock
TTITLE0=AD VANDERVEEN - Middle Ground
TTITLE1=ELLIOTT MURPHY - And General Robert E. Lee
TTITLE2=ALEJANDRO ESCOVEDO - Follow You Down
TTITLE3=THE BRANDOS - Nothing To Fear
TTITLE4=CHRIS BURROUGHS - Pray For Rain
TTITLE5=STEPHEN BRUTON - Put Me Out Of Your Misery
TTITLE6=SHAKIN' APOSTLES - Taste Of Freedom
TTITLE7=TODD THIBAUD and JOSEPH PARSONS - A Stone I Can't Roll
TTITLE8=STEVE WYNN - Manhattan Fault Line
TTITLE9=HENSLEY STURGIS - Heart Of The Past
TTITLE10=FRED EAGLESMITH - Steel Guitar
TTITLE11=VOLEBEATS - I Don't Want To Cry Tonight
TTITLE12=BLUE ROSE ROCKESTRA - Like A Hurricane
TTITLE13=Steve Earle - Data Track
EXTD=
EXTT0=
EXTT1=
EXTT2=
EXTT3=
EXTT4=
EXTT5=
EXTT6=
EXTT7=
EXTT8=
EXTT9=
EXTT10=
EXTT11=
EXTT12=
EXTT13=
PLAYORDER=
